<svg xmlns="http://www.w3.org/2000/svg" viewBox="0 0 24 30" x="0px" y="0px"><title>social media 76</title><g data-name="Layer 2"><path d="M12,2A10,10,0,1,0,22,12,10.01114,10.01114,0,0,0,12,2Zm0,18a8,8,0,1,1,8-8A8.00917,8.00917,0,0,1,12,20Z"/><path d="M15.293,7.49414,9.63623,8.90869a1.00035,1.00035,0,0,0-.72754.72754L7.49414,15.293A1.0004,1.0004,0,0,0,8.707,16.50586l5.65674-1.41455a1.00035,1.00035,0,0,0,.72754-.72754L16.50586,8.707A1.00032,1.00032,0,0,0,15.293,7.49414Zm-1.99658,5.80225L12,12l-1.29639-1.29639,3.45752-.86474Z"/></g><text x="0" y="39" fill="#000000" font-size="5px" font-weight="bold" font-family="'Helvetica Neue', Helvetica, Arial-Unicode, Arial, Sans-serif">Created by Anggara Putra</text><text x="0" y="44" fill="#000000" font-size="5px" font-weight="bold" font-family="'Helvetica Neue', Helvetica, Arial-Unicode, Arial, Sans-serif">from the Noun Project</text></svg>