<svg xmlns="http://www.w3.org/2000/svg" viewBox="0 0 32 40" x="0px" y="0px"><g data-name="Layer 2"><path d="M25,30H21a2,2,0,0,1-2-2V24a1,1,0,0,0-1-1H14a1,1,0,0,0-1,1v4a2,2,0,0,1-2,2H7a3,3,0,0,1-3-3V11.019A3.005,3.005,0,0,1,5.236,8.593l9-6.546a2.989,2.989,0,0,1,3.528,0l9,6.546A3.007,3.007,0,0,1,28,11.019V27A3,3,0,0,1,25,30ZM14,21h4a3,3,0,0,1,3,3v4h4a1,1,0,0,0,1-1V11.019a1,1,0,0,0-.412-.809l-9-6.546a1,1,0,0,0-1.176,0l-9,6.546A1,1,0,0,0,6,11.019V27a1,1,0,0,0,1,1h4V24A3,3,0,0,1,14,21Z"/></g><text x="0" y="47" fill="#000000" font-size="5px" font-weight="bold" font-family="'Helvetica Neue', Helvetica, Arial-Unicode, Arial, Sans-serif">Created by Enjang Solehudin</text><text x="0" y="52" fill="#000000" font-size="5px" font-weight="bold" font-family="'Helvetica Neue', Helvetica, Arial-Unicode, Arial, Sans-serif">from the Noun Project</text></svg>