<svg xmlns="http://www.w3.org/2000/svg" xmlns:xlink="http://www.w3.org/1999/xlink" version="1.1" x="0px" y="0px" viewBox="0 0 100 125" style="enable-background:new 0 0 100 100;" xml:space="preserve"><g><path d="M50,48.7c9.4,0,17-7.6,17-17s-7.6-17-17-17s-17,7.6-17,17S40.6,48.7,50,48.7z M50,20.7c6.1,0,11,4.9,11,11s-4.9,11-11,11   s-11-4.9-11-11S43.9,20.7,50,20.7z"/><path d="M26.8,85.3h46.3c1.3,0,2.6-0.6,3.5-1.5c0.9-1,1.4-2.3,1.3-3.7c-1.1-15.8-13.1-27.8-28-27.8c-14.9,0-26.9,11.9-28,27.8   c-0.1,1.4,0.4,2.7,1.3,3.7C24.2,84.8,25.5,85.3,26.8,85.3z M50,58.3c11.3,0,20.6,8.9,21.9,21H28.1C29.4,67.3,38.7,58.3,50,58.3z"/></g><text x="0" y="115" fill="#000000" font-size="5px" font-weight="bold" font-family="'Helvetica Neue', Helvetica, Arial-Unicode, Arial, Sans-serif">Created by icongeek</text><text x="0" y="120" fill="#000000" font-size="5px" font-weight="bold" font-family="'Helvetica Neue', Helvetica, Arial-Unicode, Arial, Sans-serif">from the Noun Project</text></svg>