<svg xmlns="http://www.w3.org/2000/svg" xmlns:xlink="http://www.w3.org/1999/xlink" version="1.1" x="0px" y="0px" viewBox="0 0 24 30" enable-background="new 0 0 24 24" xml:space="preserve"><path d="M21.7070313,20.2929688l-5.3953857-5.3953857C17.3656006,13.5424805,18,11.8456421,18,10c0-4.4111328-3.5888672-8-8-8  s-8,3.5888672-8,8s3.5888672,8,8,8c1.8456421,0,3.5424805-0.6343994,4.897583-1.6883545l5.3953857,5.3953857  C20.4882813,21.9023438,20.7441406,22,21,22s0.5117188-0.0976563,0.7070313-0.2929688  C22.0976563,21.3164063,22.0976563,20.6835938,21.7070313,20.2929688z M4,10c0-3.3085938,2.6914063-6,6-6s6,2.6914063,6,6  s-2.6914063,6-6,6S4,13.3085938,4,10z"/><text x="0" y="39" fill="#000000" font-size="5px" font-weight="bold" font-family="'Helvetica Neue', Helvetica, Arial-Unicode, Arial, Sans-serif">Created by maria icon</text><text x="0" y="44" fill="#000000" font-size="5px" font-weight="bold" font-family="'Helvetica Neue', Helvetica, Arial-Unicode, Arial, Sans-serif">from the Noun Project</text></svg>