<svg xmlns="http://www.w3.org/2000/svg" data-name="Layer 1" viewBox="0 0 100 125" x="0px" y="0px"><title>96all</title><path d="M78.85,5.5H21.15a15,15,0,0,0-15,15v71a3,3,0,0,0,5.33,1.89l12-14.79H78.85a15,15,0,0,0,15-15V20.5A15,15,0,0,0,78.85,5.5Zm9,58.1a9,9,0,0,1-9,9H23a5,5,0,0,0-3.88,1.85l-7,8.59V20.5a9,9,0,0,1,9-9h57.7a9,9,0,0,1,9,9Z"/><path d="M50,35.17a3,3,0,0,0-3,3v20.3a3,3,0,0,0,6,0V38.17A3,3,0,0,0,50,35.17Z"/><path d="M50,23.17a3,3,0,0,0-3,3v2.3a3,3,0,0,0,6,0v-2.3A3,3,0,0,0,50,23.17Z"/><text x="0" y="115" fill="#000000" font-size="5px" font-weight="bold" font-family="'Helvetica Neue', Helvetica, Arial-Unicode, Arial, Sans-serif">Created by Lakshisha</text><text x="0" y="120" fill="#000000" font-size="5px" font-weight="bold" font-family="'Helvetica Neue', Helvetica, Arial-Unicode, Arial, Sans-serif">from the Noun Project</text></svg>