<?xml version="1.0" ?><svg viewBox="0 0 32 32" xmlns="http://www.w3.org/2000/svg"><title/><g data-name="13" id="_13"><path d="M16,3A13,13,0,1,0,29,16,13,13,0,0,0,16,3Zm0,24A11,11,0,1,1,27,16,11,11,0,0,1,16,27Z"/><path d="M19.41,13a1,1,0,0,0-.62-.59L10.31,9.54A1,1,0,0,0,9,10.81l2.83,8.48a1,1,0,0,0,.59.62l9.19,3.53a.92.92,0,0,0,.36.07,1,1,0,0,0,.71-.29,1,1,0,0,0,.22-1.07Zm-5.79,5.25-2-6.14,6.14,2,2.56,6.65Z"/><path d="M16.71,15.29A1,1,0,0,0,15.8,15l-.18.06-.18.09-.15.12a1.15,1.15,0,0,0-.21.33.94.94,0,0,0,0,.76.9.9,0,0,0,.54.54.94.94,0,0,0,.76,0,.9.9,0,0,0,.54-.54A.84.84,0,0,0,17,16a1,1,0,0,0-.08-.38A1.15,1.15,0,0,0,16.71,15.29Z"/></g></svg>