<svg xmlns="http://www.w3.org/2000/svg" viewBox="0 0 100 125" x="0px" y="0px"><title>icons_done</title><path d="M10.09,20.28a1.84,1.84,0,1,1,1.84,1.84A1.84,1.84,0,0,1,10.09,20.28Zm10,1.84a1.84,1.84,0,1,0-1.84-1.84A1.84,1.84,0,0,0,20.09,22.12Zm8.16,0a1.84,1.84,0,1,0-1.84-1.84A1.84,1.84,0,0,0,28.26,22.12ZM96.26,82a19.48,19.48,0,0,1-17.7,11.36,19.64,19.64,0,0,1-15.91-8.17,1.2,1.2,0,0,1-.29.06H9a5.93,5.93,0,0,1-5.93-5.92V16.17A5.93,5.93,0,0,1,9,10.24H83.14a5.93,5.93,0,0,1,5.93,5.93v41s0,0.07,0,.11A19.43,19.43,0,0,1,96.26,82ZM5.58,16.17V26.5h81V16.17a3.43,3.43,0,0,0-3.43-3.43H9A3.43,3.43,0,0,0,5.58,16.17Zm89,51.75A17.07,17.07,0,0,0,73,57.66l3.09,1.43a1.25,1.25,0,0,1-1.05,2.27l-5.81-2.69a1.24,1.24,0,0,1-.77-1.88l3.29-5.22a1.25,1.25,0,1,1,2.12,1.33l-1.47,2.34A19.48,19.48,0,0,1,86.57,56V29h-81V79.32A3.43,3.43,0,0,0,9,82.75H61.16A19.37,19.37,0,0,1,62.25,63a1.25,1.25,0,1,1,2.08,1.38A17.06,17.06,0,0,0,84.42,89.81,17.15,17.15,0,0,0,94.56,67.91Zm-15.7,4.78a1.17,1.17,0,0,0-.13-0.11,1.25,1.25,0,0,0-.19-0.16,2.17,2.17,0,0,0-.44-0.17,1.23,1.23,0,0,0-.27,0,1.19,1.19,0,0,0-.16,0L71,73.35a1.25,1.25,0,0,0,.21,2.48l0.21,0,5.88-1,5.36,6.88a1.25,1.25,0,1,0,2-1.54Z"/><text x="0" y="115" fill="#000000" font-size="5px" font-weight="bold" font-family="'Helvetica Neue', Helvetica, Arial-Unicode, Arial, Sans-serif">Created by Sergey Novosyolov</text><text x="0" y="120" fill="#000000" font-size="5px" font-weight="bold" font-family="'Helvetica Neue', Helvetica, Arial-Unicode, Arial, Sans-serif">from the Noun Project</text></svg>